<svg xmlns="http://www.w3.org/2000/svg" viewBox="0 0 79.46 111.78"><defs><style>.cls-1{fill:#a7a6a2;}.cls-1,.cls-2,.cls-3,.cls-4,.cls-5,.cls-6,.cls-7{stroke:#231f20;stroke-miterlimit:10;}.cls-2{fill:#aaaaa5;}.cls-3{fill:#e9e3d7;}.cls-4{fill:#fffffb;}.cls-5{fill:#b4acac;}.cls-6{fill:#aea6a4;}.cls-7{fill:#fff;}</style></defs><g id="Layer_2" data-name="Layer 2"><g id="Layer_1-2" data-name="Layer 1"><path class="cls-1" d="M7.32,21c-2.3.55-.69,5.87-4.43,26.39C1.59,54.49.62,58.11.51,64.7a92.51,92.51,0,0,0,1,14.3A125.45,125.45,0,0,0,4.6,94.49l8.34-2.56c-.22-6-.23-11.09-.17-15.15.19-13.85,1.22-19,3.57-24,1.13-2.41,1.27-2,1.87-3.57C22.93,37.08,11.61,19.94,7.32,21Z"/><path class="cls-2" d="M68,18.83a122,122,0,0,1,5.62,33.53c.34,18.21,5.28,54.47,5.28,54.47l-10.9,1s-2.38-22.64-2.72-25.19-3.75-26.39-3.75-26.39-4.76-18-4.59-19.4S68,18.83,68,18.83Z"/><circle class="cls-1" cx="8.81" cy="91.42" r="5.62"/><path class="cls-3" d="M22.81,10.49S9.87,17,7.15,21.21c0,0,8.85,11.06,7.83,35.06s-4.26,53.28-4.26,53.28,23.32,4.94,53.62-1.87c0,0-2.21-47.66-2.21-50.56S60.08,33.29,67.91,19c0,0-1.53-5.11-16.17-8.51"/><path class="cls-4" d="M29.67,11.29a3.68,3.68,0,0,0-1.5.53,3.36,3.36,0,0,0-.81.73c-1.08,1.29-2.05,3.38-2.89,4.55a1.24,1.24,0,0,1-.69.52A1.14,1.14,0,0,1,23,17.5a26.41,26.41,0,0,0-2.23-4.71c-.82-1.36-1.7-2.52-1.3-3.61.13-.34.24-.31.89-1.14A15.77,15.77,0,0,0,22,5.53c.81-1.59.5-1.93,1.13-2.84A4.81,4.81,0,0,1,25.33,1,5.36,5.36,0,0,1,28.17.74,54.12,54.12,0,0,0,38.8.82,49,49,0,0,1,46.35.57a4.28,4.28,0,0,1,2.16.74,5.44,5.44,0,0,1,1.42,1.74c.45.73.43.83,1.34,2.6a6.94,6.94,0,0,0,1.42,2.27c.51.46.78.47,1,.9s.23,1.1-.12,2.19A15.85,15.85,0,0,1,52,14.38c-1.32,2.18-1.64,2-1.87,2.92a2,2,0,0,1-.73,1.3,1.32,1.32,0,0,1-.73.2c-1-.09-1.31-2.18-2.84-4.59a6,6,0,0,0-1.22-1.62,4.34,4.34,0,0,0-2.56-.77c-5.43-.19-5.6.27-7.63-.08A19,19,0,0,0,29.67,11.29Z"/><path class="cls-4" d="M29.63,12.13A37.51,37.51,0,0,1,26,6.66a3.16,3.16,0,0,1-.49-2.39,2.15,2.15,0,0,1,1.26-1.46,2.14,2.14,0,0,1,1.5.12c3.18,1.26,14.51.28,16.56-.16a2.19,2.19,0,0,1,1.22,0,2.43,2.43,0,0,1,1.22,1,3.37,3.37,0,0,1,0,2.68c-.75,2.27-1.94,3.18-3.41,5.28-2.19,3.13-1.45,3.87-3.1,5.26-.18.15-3,2.42-5.74,1.63C33.13,18.16,33.61,16.86,29.63,12.13Z"/><path class="cls-5" d="M36.23,27.78a5.85,5.85,0,0,0-.75-1.5,18.22,18.22,0,0,1-.84-2.16,19.4,19.4,0,0,0-1.73-3.24,7.13,7.13,0,0,0-.72-1c-.16-.17-.34-.33-.49-.51a3.57,3.57,0,0,1-.55-2.47,8.64,8.64,0,0,0,0-2.59,3.07,3.07,0,0,0-.81-1.39l2.5.18a1.9,1.9,0,0,1,.62.12c.5.21.7.8.85,1.33a10.45,10.45,0,0,0,1.63,3.88c.44.53,1,1,1.48,1.47a2.54,2.54,0,0,1,.49.64,3,3,0,0,1,.21.66,14.76,14.76,0,0,1,.31,1.5A6.82,6.82,0,0,1,38,26a6.93,6.93,0,0,1-.81,1.49C36.9,27.86,36.41,28.61,36.23,27.78Z"/><path class="cls-6" d="M42.49,16.84a11.74,11.74,0,0,1-.21,3.25,15.61,15.61,0,0,1-.6,1.47,7.11,7.11,0,0,0-.37,1.35,14.36,14.36,0,0,0-.13,1.61L41,28.47c0,.92-.07,1.83,0,2.75a24.18,24.18,0,0,1,0,5,12.19,12.19,0,0,0-5,.08c.12-1.83.18-3.65.18-5.48a30.33,30.33,0,0,0-.12-3.3,14.25,14.25,0,0,1-.15-2c.08-2.59,2-4.74,2.73-7.23.35-1.25.43-2.64,1.26-3.63a5.88,5.88,0,0,1,1.8-1.27c.46-.25,1.32-1.05,1.78-1.05A14.41,14.41,0,0,0,42.49,16.84Z"/><circle class="cls-7" cx="38.47" cy="24.98" r="1.29"/><ellipse class="cls-7" cx="32.91" cy="15.48" rx="0.64" ry="0.84"/></g></g></svg>