<svg xmlns="http://www.w3.org/2000/svg" viewBox="0 0 81.37 111.78"><defs><style>.cls-1{fill:#a69e98;}.cls-1,.cls-2,.cls-3,.cls-4,.cls-5,.cls-6{stroke:#231f20;stroke-miterlimit:10;}.cls-2{fill:#e9e3d7;}.cls-3{fill:#fffffb;}.cls-4{fill:#b4acac;}.cls-5{fill:#aea6a4;}.cls-6{fill:#fff;}</style></defs><g id="Layer_2" data-name="Layer 2"><g id="Layer_1-2" data-name="Layer 1"><path class="cls-1" d="M10.24,21.46,2.32,38.66.54,43.89l2.22,4.94a17.57,17.57,0,0,0,5,6.51l2.44,1.95,3.06-.51,5.62-8.29-5-27Z"/><path class="cls-1" d="M71.13,18.8,79.05,36l1.79,5.23-2.23,5a17.54,17.54,0,0,1-5,6.5l-2.44,2-3.06-.51-5.62-8.29,5-27Z"/><path class="cls-2" d="M26.07,10.49S13.13,17,10.41,21.21c0,0,8.85,11.06,7.83,35.06S14,109.55,14,109.55s23.32,4.94,53.62-1.87c0,0-2.21-47.66-2.21-50.56s-2-23.83,5.79-38.12c0,0-1.54-5.11-16.17-8.51"/><path class="cls-3" d="M32.93,11.29a3.68,3.68,0,0,0-1.5.53,3.36,3.36,0,0,0-.81.73c-1.08,1.29-2.05,3.38-2.88,4.55a1.28,1.28,0,0,1-.69.52,1.17,1.17,0,0,1-.82-.12A26.41,26.41,0,0,0,24,12.79c-.82-1.36-1.7-2.52-1.3-3.61.13-.34.24-.31.9-1.14a16,16,0,0,0,1.62-2.51c.81-1.59.5-1.93,1.14-2.84A4.8,4.8,0,0,1,28.59,1,5.36,5.36,0,0,1,31.43.74,54.23,54.23,0,0,0,42.07.82,48.93,48.93,0,0,1,49.62.57a4.25,4.25,0,0,1,2.15.74,5.44,5.44,0,0,1,1.42,1.74c.45.73.43.83,1.34,2.6A6.94,6.94,0,0,0,56,7.92c.51.46.78.47,1,.9s.23,1.1-.12,2.19a15.38,15.38,0,0,1-1.58,3.37c-1.32,2.18-1.64,2-1.87,2.92a2,2,0,0,1-.73,1.3,1.32,1.32,0,0,1-.73.2c-1-.09-1.3-2.18-2.84-4.59a6,6,0,0,0-1.22-1.62,4.34,4.34,0,0,0-2.56-.77c-5.42-.19-5.6.27-7.63-.08A19,19,0,0,0,32.93,11.29Z"/><path class="cls-3" d="M32.89,12.13a37.51,37.51,0,0,1-3.61-5.47,3.16,3.16,0,0,1-.49-2.39,2.18,2.18,0,0,1,1.26-1.46,2.14,2.14,0,0,1,1.5.12c3.18,1.26,14.51.28,16.56-.16a2.19,2.19,0,0,1,1.22,0,2.34,2.34,0,0,1,1.22,1,3.33,3.33,0,0,1,0,2.68c-.74,2.27-1.94,3.18-3.41,5.28C45,15,45.69,15.69,44,17.08c-.17.15-2.95,2.42-5.74,1.63C36.39,18.16,36.87,16.86,32.89,12.13Z"/><path class="cls-4" d="M39.49,27.78a5.82,5.82,0,0,0-.74-1.5,18.27,18.27,0,0,1-.85-2.16,18.69,18.69,0,0,0-1.73-3.24,6.34,6.34,0,0,0-.71-1c-.17-.17-.34-.33-.49-.51a3.53,3.53,0,0,1-.56-2.47,8,8,0,0,0,0-2.59,3.14,3.14,0,0,0-.8-1.39l2.49.18a1.9,1.9,0,0,1,.62.12,1.83,1.83,0,0,1,.85,1.33,10.45,10.45,0,0,0,1.63,3.88c.44.53,1,1,1.48,1.47a2.54,2.54,0,0,1,.49.64,3,3,0,0,1,.22.66,12.44,12.44,0,0,1,.3,1.5A6.82,6.82,0,0,1,41.24,26a6.93,6.93,0,0,1-.81,1.49C40.16,27.86,39.67,28.61,39.49,27.78Z"/><path class="cls-5" d="M45.75,16.84a12.14,12.14,0,0,1-.2,3.25c-.16.51-.41,1-.6,1.47a5.89,5.89,0,0,0-.37,1.35,14.37,14.37,0,0,0-.14,1.61l-.15,3.95c0,.92-.08,1.83,0,2.75a24.18,24.18,0,0,1,0,5,12.14,12.14,0,0,0-4.95.08c.11-1.83.17-3.65.18-5.48,0-1.1,0-2.2-.13-3.3a14.25,14.25,0,0,1-.15-2c.09-2.59,2-4.74,2.73-7.23.36-1.25.43-2.64,1.26-3.63A6.13,6.13,0,0,1,45,13.39c.46-.25,1.32-1.05,1.79-1.05A14.15,14.15,0,0,0,45.75,16.84Z"/><circle class="cls-6" cx="41.73" cy="24.98" r="1.29"/><ellipse class="cls-6" cx="36.17" cy="15.48" rx="0.64" ry="0.84"/></g></g></svg>